<svg width="20" height="20" viewBox="0 0 20 20" fill="none" xmlns="http://www.w3.org/2000/svg">
<path d="M15.8334 3.33335H14.1667V2.50002C14.1667 2.27901 14.079 2.06704 13.9227 1.91076C13.7664 1.75448 13.5544 1.66669 13.3334 1.66669C13.1124 1.66669 12.9004 1.75448 12.7442 1.91076C12.5879 2.06704 12.5001 2.27901 12.5001 2.50002V3.33335H7.50008V2.50002C7.50008 2.27901 7.41228 2.06704 7.256 1.91076C7.09972 1.75448 6.88776 1.66669 6.66675 1.66669C6.44573 1.66669 6.23377 1.75448 6.07749 1.91076C5.92121 2.06704 5.83341 2.27901 5.83341 2.50002V3.33335H4.16675C3.50371 3.33335 2.86782 3.59675 2.39898 4.06559C1.93014 4.53443 1.66675 5.17031 1.66675 5.83335V15.8334C1.66675 16.4964 1.93014 17.1323 2.39898 17.6011C2.86782 18.07 3.50371 18.3334 4.16675 18.3334H15.8334C16.4965 18.3334 17.1323 18.07 17.6012 17.6011C18.07 17.1323 18.3334 16.4964 18.3334 15.8334V5.83335C18.3334 5.17031 18.07 4.53443 17.6012 4.06559C17.1323 3.59675 16.4965 3.33335 15.8334 3.33335ZM16.6667 15.8334C16.6667 16.0544 16.579 16.2663 16.4227 16.4226C16.2664 16.5789 16.0544 16.6667 15.8334 16.6667H4.16675C3.94573 16.6667 3.73377 16.5789 3.57749 16.4226C3.42121 16.2663 3.33341 16.0544 3.33341 15.8334V10H16.6667V15.8334ZM16.6667 8.33335H3.33341V5.83335C3.33341 5.61234 3.42121 5.40038 3.57749 5.2441C3.73377 5.08782 3.94573 5.00002 4.16675 5.00002H5.83341V5.83335C5.83341 6.05437 5.92121 6.26633 6.07749 6.42261C6.23377 6.57889 6.44573 6.66669 6.66675 6.66669C6.88776 6.66669 7.09972 6.57889 7.256 6.42261C7.41228 6.26633 7.50008 6.05437 7.50008 5.83335V5.00002H12.5001V5.83335C12.5001 6.05437 12.5879 6.26633 12.7442 6.42261C12.9004 6.57889 13.1124 6.66669 13.3334 6.66669C13.5544 6.66669 13.7664 6.57889 13.9227 6.42261C14.079 6.26633 14.1667 6.05437 14.1667 5.83335V5.00002H15.8334C16.0544 5.00002 16.2664 5.08782 16.4227 5.2441C16.579 5.40038 16.6667 5.61234 16.6667 5.83335V8.33335Z" fill="#E9E9E9" style="fill:#E9E9E9;fill:color(display-p3 0.9137 0.9137 0.9137);fill-opacity:1;"/>
</svg>
