<svg width="650" height="479" viewBox="0 0 650 479" fill="none" xmlns="http://www.w3.org/2000/svg">
<g clip-path="url(#clip0_2012_972)">
<path d="M-62.1121 149.734V260.675V391.643V502.583L669.586 240.528V129.588V-1.38136V-112.321L-62.1121 149.734Z" fill="#0053AA" style="fill:#0053AA;fill:color(display-p3 0.0000 0.3255 0.6667);fill-opacity:1;"/>
<path d="M490.935 5.32464L636.278 -140.503" stroke="#5491D1" style="stroke:#5491D1;stroke:color(display-p3 0.3294 0.5686 0.8196);stroke-opacity:1;" stroke-width="7" stroke-miterlimit="10"/>
<path d="M500.592 15.0139L645.934 -130.814" stroke="#5491D1" style="stroke:#5491D1;stroke:color(display-p3 0.3294 0.5686 0.8196);stroke-opacity:1;" stroke-width="7" stroke-miterlimit="10"/>
<path d="M510.248 24.7019L655.591 -121.126" stroke="#5491D1" style="stroke:#5491D1;stroke:color(display-p3 0.3294 0.5686 0.8196);stroke-opacity:1;" stroke-width="7" stroke-miterlimit="10"/>
<path d="M519.904 34.3912L665.247 -111.437" stroke="#5491D1" style="stroke:#5491D1;stroke:color(display-p3 0.3294 0.5686 0.8196);stroke-opacity:1;" stroke-width="7" stroke-miterlimit="10"/>
<path d="M529.561 44.0791L674.904 -101.749" stroke="#5491D1" style="stroke:#5491D1;stroke:color(display-p3 0.3294 0.5686 0.8196);stroke-opacity:1;" stroke-width="7" stroke-miterlimit="10"/>
<path d="M539.217 53.7684L684.56 -92.0598" stroke="#5491D1" style="stroke:#5491D1;stroke:color(display-p3 0.3294 0.5686 0.8196);stroke-opacity:1;" stroke-width="7" stroke-miterlimit="10"/>
<path d="M548.874 63.4564L694.217 -82.3718" stroke="#5491D1" style="stroke:#5491D1;stroke:color(display-p3 0.3294 0.5686 0.8196);stroke-opacity:1;" stroke-width="7" stroke-miterlimit="10"/>
<path d="M558.529 73.1456L703.873 -72.6825" stroke="#5491D1" style="stroke:#5491D1;stroke:color(display-p3 0.3294 0.5686 0.8196);stroke-opacity:1;" stroke-width="7" stroke-miterlimit="10"/>
<path d="M568.187 82.8336L713.53 -62.9946" stroke="#5491D1" style="stroke:#5491D1;stroke:color(display-p3 0.3294 0.5686 0.8196);stroke-opacity:1;" stroke-width="7" stroke-miterlimit="10"/>
<path d="M447.978 153.339L891.195 -5.39771V-13.8973L447.978 144.839V153.339Z" fill="#5491D1" style="fill:#5491D1;fill:color(display-p3 0.3294 0.5686 0.8196);fill-opacity:1;"/>
<path d="M162.835 39.6167V46.2836V48.1163V54.7845L606.053 -103.952V-110.62V-112.453V-119.12L162.835 39.6167Z" fill="#5491D1" style="fill:#5491D1;fill:color(display-p3 0.3294 0.5686 0.8196);fill-opacity:1;"/>
<path d="M88.9709 447.758L532.189 289.021V280.52L88.9709 439.257V447.758Z" fill="#0053AA" style="fill:#0053AA;fill:color(display-p3 0.0000 0.3255 0.6667);fill-opacity:1;"/>
<path d="M-149.997 405.633V410.311V414.134V418.812L293.221 260.075V255.397V251.574V246.896L-149.997 405.633Z" fill="#FFD500" style="fill:#FFD500;fill:color(display-p3 1.0000 0.8353 0.0000);fill-opacity:1;"/>
<path d="M64.3657 319.832L507.584 161.095V152.596L64.3657 311.332V319.832Z" fill="#FFE354" style="fill:#FFE354;fill:color(display-p3 1.0000 0.8902 0.3294);fill-opacity:1;"/>
<path d="M615.129 69.7202L1058.35 -89.0165V-97.5161L615.129 61.2206V69.7202Z" fill="#FFE354" style="fill:#FFE354;fill:color(display-p3 1.0000 0.8902 0.3294);fill-opacity:1;"/>
<path d="M75.1157 46.1388L518.334 -112.598V-121.098L75.1157 37.6392V46.1388Z" fill="#0053AA" style="fill:#0053AA;fill:color(display-p3 0.0000 0.3255 0.6667);fill-opacity:1;"/>
<path d="M-102.18 129.758L341.037 -28.9791V-37.4787L-102.18 121.258V129.758Z" fill="white" style="fill:white;fill-opacity:1;"/>
<path d="M573.263 308.943C571.193 308.943 569.122 308.152 567.545 306.57C566.841 305.863 565.897 305.473 564.89 305.473C563.883 305.473 562.939 305.861 562.235 306.57C560.713 308.097 558.681 308.939 556.517 308.939C554.353 308.939 552.322 308.097 550.8 306.57C550.095 305.863 549.152 305.473 548.144 305.473C547.137 305.473 546.193 305.861 545.489 306.568C542.336 309.732 537.206 309.732 534.054 306.568C533.349 305.861 532.406 305.473 531.398 305.473V301.128C533.563 301.128 535.594 301.969 537.116 303.497C538.58 304.965 540.962 304.965 542.427 303.497C543.949 301.969 545.98 301.128 548.144 301.128C550.308 301.128 552.34 301.969 553.862 303.497C555.327 304.965 557.708 304.965 559.173 303.497C560.696 301.969 562.726 301.128 564.89 301.128C567.054 301.128 569.086 301.969 570.608 303.497C572.072 304.965 574.454 304.965 575.918 303.497C577.442 301.969 579.472 301.128 581.636 301.128C583.8 301.128 585.832 301.969 587.354 303.497C588.817 304.965 591.199 304.965 592.664 303.497C595.817 300.333 600.948 300.333 604.101 303.497C605.564 304.965 607.947 304.965 609.411 303.497C610.933 301.969 612.965 301.128 615.129 301.128V305.473C614.122 305.473 613.178 305.861 612.474 306.568C609.32 309.732 604.19 309.732 601.038 306.568C599.575 305.1 597.193 305.1 595.728 306.568C592.576 309.732 587.445 309.732 584.293 306.568C583.588 305.861 582.645 305.471 581.637 305.471C580.63 305.471 579.686 305.86 578.982 306.568C577.405 308.149 575.335 308.941 573.264 308.941L573.263 308.943Z" fill="#FFD500" style="fill:#FFD500;fill:color(display-p3 1.0000 0.8353 0.0000);fill-opacity:1;"/>
<path d="M606.756 323.719C604.686 323.719 602.615 322.928 601.038 321.346C599.574 319.877 597.191 319.877 595.728 321.346C594.206 322.874 592.174 323.715 590.01 323.715C587.846 323.715 585.815 322.874 584.293 321.346C582.829 319.877 580.447 319.877 578.982 321.346C577.46 322.874 575.428 323.715 573.264 323.715C571.1 323.715 569.069 322.874 567.547 321.346C566.083 319.877 563.701 319.877 562.236 321.346C560.714 322.874 558.683 323.715 556.519 323.715C554.354 323.715 552.323 322.874 550.801 321.346C549.336 319.877 546.954 319.877 545.49 321.346C542.337 324.509 537.207 324.509 534.054 321.346C533.349 320.639 532.406 320.251 531.398 320.251V315.905C533.563 315.905 535.594 316.747 537.116 318.274C538.581 319.743 540.962 319.743 542.427 318.274C545.58 315.111 550.71 315.111 553.862 318.274C554.566 318.981 555.51 319.371 556.517 319.371C557.524 319.371 558.468 318.983 559.173 318.276C562.326 315.112 567.456 315.112 570.608 318.276C571.312 318.983 572.256 319.373 573.263 319.373C574.27 319.373 575.214 318.984 575.918 318.277C579.072 315.114 584.202 315.114 587.355 318.277C588.059 318.984 589.003 319.374 590.01 319.374C591.018 319.374 591.961 318.985 592.666 318.278C595.819 315.115 600.949 315.115 604.101 318.278C605.565 319.747 607.948 319.747 609.411 318.278C610.933 316.751 612.965 315.909 615.129 315.909V320.254C614.122 320.254 613.178 320.643 612.474 321.35C610.897 322.931 608.827 323.723 606.756 323.723V323.719Z" fill="#FFD500" style="fill:#FFD500;fill:color(display-p3 1.0000 0.8353 0.0000);fill-opacity:1;"/>
<path d="M606.756 338.496C604.686 338.496 602.615 337.705 601.038 336.123C599.574 334.654 597.191 334.654 595.728 336.123C594.206 337.65 592.174 338.492 590.01 338.492C587.846 338.492 585.815 337.65 584.293 336.123C582.829 334.653 580.447 334.654 578.982 336.123C577.46 337.65 575.428 338.492 573.264 338.492C571.1 338.492 569.069 337.65 567.547 336.123C566.083 334.654 563.701 334.654 562.236 336.123C560.714 337.65 558.683 338.492 556.519 338.492C554.354 338.492 552.323 337.65 550.801 336.123C549.336 334.654 546.954 334.654 545.49 336.123C542.337 339.286 537.207 339.286 534.054 336.123C533.349 335.416 532.406 335.027 531.398 335.027V330.682C533.563 330.682 535.594 331.523 537.116 333.051C538.581 334.52 540.962 334.52 542.427 333.051C545.58 329.888 550.71 329.888 553.862 333.051C554.566 333.758 555.51 334.148 556.517 334.148C557.524 334.148 558.468 333.759 559.173 333.052C562.326 329.889 567.456 329.889 570.608 333.052C571.312 333.759 572.256 334.149 573.263 334.149C574.27 334.149 575.214 333.76 575.918 333.053C579.072 329.89 584.202 329.89 587.355 333.053C588.059 333.76 589.003 334.15 590.01 334.15C591.018 334.15 591.961 333.762 592.666 333.055C595.819 329.892 600.949 329.892 604.101 333.055C605.565 334.524 607.948 334.524 609.411 333.055C610.933 331.527 612.965 330.686 615.129 330.686V335.031C614.122 335.031 613.178 335.42 612.474 336.127C610.897 337.708 608.827 338.499 606.756 338.499V338.496Z" fill="#FFD500" style="fill:#FFD500;fill:color(display-p3 1.0000 0.8353 0.0000);fill-opacity:1;"/>
<path d="M606.756 353.272C604.686 353.272 602.615 352.482 601.038 350.899C599.574 349.43 597.191 349.43 595.728 350.899C594.206 352.427 592.174 353.268 590.01 353.268C587.846 353.268 585.815 352.427 584.293 350.899C582.829 349.43 580.447 349.43 578.982 350.899C577.46 352.427 575.428 353.268 573.264 353.268C571.1 353.268 569.069 352.427 567.547 350.899C566.083 349.43 563.701 349.43 562.236 350.899C560.714 352.427 558.683 353.268 556.519 353.268C554.354 353.268 552.323 352.427 550.801 350.899C549.336 349.43 546.954 349.43 545.49 350.899C542.337 354.062 537.207 354.062 534.054 350.899C533.349 350.192 532.406 349.804 531.398 349.804V345.459C533.563 345.459 535.594 346.3 537.116 347.827C538.581 349.296 540.962 349.297 542.427 347.827C545.58 344.664 550.71 344.664 553.862 347.827C554.566 348.534 555.51 348.924 556.517 348.924C557.524 348.924 558.468 348.536 559.173 347.829C562.326 344.665 567.456 344.665 570.608 347.829C571.312 348.536 572.256 348.926 573.263 348.926C574.27 348.926 575.214 348.537 575.918 347.83C579.072 344.667 584.202 344.667 587.355 347.83C588.059 348.537 589.003 348.927 590.01 348.927C591.018 348.927 591.961 348.538 592.666 347.831C595.819 344.668 600.949 344.668 604.101 347.831C605.565 349.3 607.948 349.301 609.411 347.831C610.933 346.304 612.965 345.462 615.129 345.462V349.808C614.122 349.808 613.178 350.196 612.474 350.903C610.897 352.484 608.827 353.276 606.756 353.276V353.272Z" fill="#FFD500" style="fill:#FFD500;fill:color(display-p3 1.0000 0.8353 0.0000);fill-opacity:1;"/>
<path d="M573.263 368.049C571.193 368.049 569.122 367.258 567.545 365.676C566.841 364.969 565.897 364.579 564.89 364.579C563.883 364.579 562.939 364.968 562.235 365.676C560.713 367.203 558.681 368.045 556.517 368.045C554.353 368.045 552.322 367.203 550.8 365.676C550.095 364.969 549.152 364.579 548.144 364.579C547.137 364.579 546.193 364.967 545.489 365.674C542.336 368.838 537.206 368.838 534.054 365.674C533.349 364.967 532.406 364.578 531.398 364.578V360.232C533.563 360.232 535.594 361.074 537.116 362.601C538.58 364.07 540.962 364.07 542.427 362.601C543.949 361.074 545.98 360.232 548.144 360.232C550.308 360.232 552.34 361.074 553.862 362.601C554.566 363.308 555.51 363.697 556.517 363.697C557.524 363.697 558.468 363.308 559.173 362.601C560.696 361.074 562.726 360.232 564.89 360.232C567.054 360.232 569.086 361.074 570.608 362.601C572.072 364.07 574.454 364.07 575.918 362.601C577.442 361.074 579.472 360.232 581.636 360.232C583.8 360.232 585.832 361.074 587.354 362.601C588.817 364.07 591.199 364.07 592.664 362.601C595.817 359.438 600.948 359.438 604.101 362.601C605.564 364.07 607.947 364.07 609.411 362.601C610.933 361.074 612.965 360.232 615.129 360.232V364.578C614.122 364.578 613.178 364.966 612.474 365.673C609.32 368.836 604.19 368.836 601.038 365.673C600.334 364.966 599.39 364.576 598.383 364.576C597.376 364.576 596.432 364.965 595.728 365.673C592.576 368.836 587.445 368.836 584.293 365.673C583.588 364.966 582.645 364.576 581.637 364.576C580.63 364.576 579.686 364.965 578.982 365.673C577.405 367.254 575.335 368.046 573.264 368.046L573.263 368.049Z" fill="#FFD500" style="fill:#FFD500;fill:color(display-p3 1.0000 0.8353 0.0000);fill-opacity:1;"/>
<path d="M97.2257 95.1082C95.1552 95.1082 93.0848 94.3177 91.5082 92.7355C90.8037 92.0285 89.8601 91.6385 88.8528 91.6385C87.8455 91.6385 86.9019 92.0272 86.1974 92.7355C84.6754 94.2629 82.6439 95.1043 80.4799 95.1043C78.3158 95.1043 76.2843 94.2629 74.7623 92.7355C73.2988 91.2667 70.9151 91.2667 69.4516 92.7355C67.9296 94.2629 65.8981 95.1043 63.734 95.1043C61.57 95.1043 59.5385 94.2629 58.0165 92.7355C57.312 92.0285 56.3684 91.6385 55.3611 91.6385V87.2934C57.5252 87.2934 59.5566 88.1348 61.0786 89.6623C61.7831 90.3693 62.7267 90.7593 63.734 90.7593C64.7413 90.7593 65.6849 90.3705 66.3894 89.6635C67.9127 88.1361 69.9429 87.2947 72.1069 87.2947C74.271 87.2947 76.3025 88.1361 77.8245 89.6635C78.529 90.3705 79.4726 90.7606 80.4799 90.7606C81.4872 90.7606 82.4308 90.3718 83.1352 89.6648C84.6585 88.1374 86.6887 87.296 88.8528 87.296C91.0169 87.296 93.0484 88.1374 94.5704 89.6648C96.0352 91.1336 98.4176 91.1336 99.8811 89.6648C103.034 86.5016 108.164 86.5016 111.317 89.6648C112.022 90.3718 112.966 90.7619 113.973 90.7619C114.98 90.7619 115.924 90.3731 116.628 89.6648C118.15 88.1374 120.182 87.296 122.346 87.296C124.51 87.296 126.541 88.1374 128.063 89.6648C129.527 91.1336 131.911 91.1336 133.374 89.6648C134.896 88.1374 136.928 87.296 139.092 87.296V91.6411C138.084 91.6411 137.141 92.0298 136.436 92.7368C134.913 94.2642 132.883 95.1056 130.719 95.1056C128.555 95.1056 126.523 94.2642 125.001 92.7368C124.297 92.0298 123.353 91.6398 122.346 91.6398C121.339 91.6398 120.395 92.0285 119.69 92.7355C118.167 94.2629 116.137 95.1043 113.973 95.1043C111.809 95.1043 109.777 94.2629 108.255 92.7355C106.792 91.2667 104.408 91.2667 102.945 92.7355C101.368 94.3164 99.2975 95.1082 97.227 95.1082H97.2257Z" fill="#0053AA" style="fill:#0053AA;fill:color(display-p3 0.0000 0.3255 0.6667);fill-opacity:1;"/>
<path d="M97.2257 109.883C95.1552 109.883 93.0848 109.093 91.5082 107.511C90.8037 106.804 89.8601 106.414 88.8528 106.414C87.8455 106.414 86.9019 106.802 86.1974 107.511C84.6754 109.038 82.6439 109.88 80.4799 109.88C78.3158 109.88 76.2843 109.038 74.7623 107.511C73.2988 106.042 70.9151 106.042 69.4516 107.511C67.9296 109.038 65.8981 109.88 63.734 109.88C61.57 109.88 59.5385 109.038 58.0165 107.511C57.312 106.804 56.3684 106.414 55.3611 106.414V102.069C57.5252 102.069 59.5566 102.91 61.0786 104.437C61.7831 105.144 62.7267 105.535 63.734 105.535C64.7413 105.535 65.6849 105.146 66.3894 104.439C67.9127 102.911 69.9429 102.07 72.1069 102.07C74.271 102.07 76.3025 102.911 77.8245 104.439C78.529 105.146 79.4726 105.536 80.4799 105.536C81.4872 105.536 82.4308 105.147 83.1352 104.44C84.6585 102.913 86.6887 102.071 88.8528 102.071C91.0169 102.071 93.0484 102.913 94.5704 104.44C96.0352 105.909 98.4176 105.909 99.8811 104.44C103.034 101.277 108.164 101.277 111.317 104.44C112.022 105.147 112.966 105.537 113.973 105.537C114.98 105.537 115.924 105.148 116.628 104.44C118.15 102.913 120.182 102.071 122.346 102.071C124.51 102.071 126.541 102.913 128.063 104.44C129.527 105.909 131.911 105.909 133.374 104.44C134.896 102.913 136.928 102.071 139.092 102.071V106.416C138.084 106.416 137.141 106.805 136.436 107.512C134.913 109.039 132.883 109.881 130.719 109.881C128.555 109.881 126.523 109.039 125.001 107.512C124.297 106.805 123.353 106.415 122.346 106.415C121.339 106.415 120.395 106.804 119.69 107.511C118.167 109.038 116.137 109.88 113.973 109.88C111.809 109.88 109.777 109.038 108.255 107.511C106.792 106.042 104.408 106.042 102.945 107.511C101.368 109.092 99.2975 109.883 97.227 109.883H97.2257Z" fill="white" style="fill:white;fill-opacity:1;"/>
<path d="M92.6015 158L51.3918 199.372L52.4637 200.447L93.6733 159.075L92.6015 158Z" fill="#5491D1" style="fill:#5491D1;fill:color(display-p3 0.3294 0.5686 0.8196);fill-opacity:1;"/>
<path d="M95.342 160.748L54.1323 202.12L55.2041 203.196L96.4138 161.823L95.342 160.748Z" fill="#5491D1" style="fill:#5491D1;fill:color(display-p3 0.3294 0.5686 0.8196);fill-opacity:1;"/>
<path d="M98.0815 163.495L56.8718 204.868L57.9436 205.943L99.1533 164.571L98.0815 163.495Z" fill="#5491D1" style="fill:#5491D1;fill:color(display-p3 0.3294 0.5686 0.8196);fill-opacity:1;"/>
<path d="M100.819 166.244L59.6091 207.616L60.6809 208.691L101.891 167.319L100.819 166.244Z" fill="#5491D1" style="fill:#5491D1;fill:color(display-p3 0.3294 0.5686 0.8196);fill-opacity:1;"/>
<path d="M103.558 168.993L62.3486 210.365L63.4205 211.441L104.63 170.068L103.558 168.993Z" fill="#5491D1" style="fill:#5491D1;fill:color(display-p3 0.3294 0.5686 0.8196);fill-opacity:1;"/>
<path d="M106.296 171.739L65.0859 213.112L66.1577 214.187L107.367 172.815L106.296 171.739Z" fill="#5491D1" style="fill:#5491D1;fill:color(display-p3 0.3294 0.5686 0.8196);fill-opacity:1;"/>
<path d="M109.036 174.488L67.8264 215.86L68.8982 216.935L110.108 175.563L109.036 174.488Z" fill="#5491D1" style="fill:#5491D1;fill:color(display-p3 0.3294 0.5686 0.8196);fill-opacity:1;"/>
<path d="M111.774 177.237L70.5647 218.609L71.6365 219.684L112.846 178.312L111.774 177.237Z" fill="#5491D1" style="fill:#5491D1;fill:color(display-p3 0.3294 0.5686 0.8196);fill-opacity:1;"/>
<path d="M114.513 179.985L73.3032 221.357L74.375 222.433L115.585 181.06L114.513 179.985Z" fill="#5491D1" style="fill:#5491D1;fill:color(display-p3 0.3294 0.5686 0.8196);fill-opacity:1;"/>
<path d="M117.252 182.732L76.0427 224.105L77.1145 225.18L118.324 183.808L117.252 182.732Z" fill="#5491D1" style="fill:#5491D1;fill:color(display-p3 0.3294 0.5686 0.8196);fill-opacity:1;"/>
<path d="M119.99 185.481L78.78 226.853L79.8518 227.928L121.061 186.556L119.99 185.481Z" fill="#5491D1" style="fill:#5491D1;fill:color(display-p3 0.3294 0.5686 0.8196);fill-opacity:1;"/>
<path d="M122.729 188.23L81.5195 229.602L82.5913 230.678L123.801 189.305L122.729 188.23Z" fill="#5491D1" style="fill:#5491D1;fill:color(display-p3 0.3294 0.5686 0.8196);fill-opacity:1;"/>
<path d="M125.468 190.976L84.2588 232.349L85.3306 233.424L126.54 192.052L125.468 190.976Z" fill="#5491D1" style="fill:#5491D1;fill:color(display-p3 0.3294 0.5686 0.8196);fill-opacity:1;"/>
<path d="M128.207 193.725L86.9973 235.097L88.0691 236.172L129.279 194.8L128.207 193.725Z" fill="#5491D1" style="fill:#5491D1;fill:color(display-p3 0.3294 0.5686 0.8196);fill-opacity:1;"/>
<path d="M130.945 196.474L89.7356 237.846L90.8074 238.922L132.017 197.549L130.945 196.474Z" fill="#5491D1" style="fill:#5491D1;fill:color(display-p3 0.3294 0.5686 0.8196);fill-opacity:1;"/>
<path d="M432.287 365.174L376.588 421.093L377.413 421.922L433.112 366.002L432.287 365.174Z" fill="#0053AA" style="fill:#0053AA;fill:color(display-p3 0.0000 0.3255 0.6667);fill-opacity:1;"/>
<path d="M435.988 368.889L380.289 424.809L381.115 425.637L436.814 369.718L435.988 368.889Z" fill="#0053AA" style="fill:#0053AA;fill:color(display-p3 0.0000 0.3255 0.6667);fill-opacity:1;"/>
<path d="M439.69 372.603L383.991 428.522L384.816 429.351L440.516 373.431L439.69 372.603Z" fill="#0053AA" style="fill:#0053AA;fill:color(display-p3 0.0000 0.3255 0.6667);fill-opacity:1;"/>
<path d="M443.392 376.316L387.692 432.235L388.518 433.064L444.217 377.144L443.392 376.316Z" fill="#0053AA" style="fill:#0053AA;fill:color(display-p3 0.0000 0.3255 0.6667);fill-opacity:1;"/>
<path d="M447.094 380.03L391.394 435.949L392.22 436.777L447.919 380.858L447.094 380.03Z" fill="#0053AA" style="fill:#0053AA;fill:color(display-p3 0.0000 0.3255 0.6667);fill-opacity:1;"/>
<path d="M450.795 383.744L395.096 439.664L395.921 440.492L451.62 384.572L450.795 383.744Z" fill="#0053AA" style="fill:#0053AA;fill:color(display-p3 0.0000 0.3255 0.6667);fill-opacity:1;"/>
<path d="M454.497 387.458L398.798 443.377L399.623 444.205L455.322 388.286L454.497 387.458Z" fill="#0053AA" style="fill:#0053AA;fill:color(display-p3 0.0000 0.3255 0.6667);fill-opacity:1;"/>
<path d="M458.198 391.171L402.499 447.09L403.325 447.918L459.024 391.999L458.198 391.171Z" fill="#0053AA" style="fill:#0053AA;fill:color(display-p3 0.0000 0.3255 0.6667);fill-opacity:1;"/>
<path d="M461.9 394.885L406.201 450.805L407.026 451.633L462.726 395.714L461.9 394.885Z" fill="#0053AA" style="fill:#0053AA;fill:color(display-p3 0.0000 0.3255 0.6667);fill-opacity:1;"/>
<path d="M465.602 398.6L409.902 454.519L410.728 455.347L466.427 399.428L465.602 398.6Z" fill="#0053AA" style="fill:#0053AA;fill:color(display-p3 0.0000 0.3255 0.6667);fill-opacity:1;"/>
<path d="M469.303 402.313L413.604 458.233L414.43 459.061L470.129 403.142L469.303 402.313Z" fill="#0053AA" style="fill:#0053AA;fill:color(display-p3 0.0000 0.3255 0.6667);fill-opacity:1;"/>
<path d="M473.005 406.026L417.306 461.946L418.131 462.774L473.83 406.855L473.005 406.026Z" fill="#0053AA" style="fill:#0053AA;fill:color(display-p3 0.0000 0.3255 0.6667);fill-opacity:1;"/>
<path d="M476.708 409.74L421.009 465.66L421.834 466.488L477.534 410.568L476.708 409.74Z" fill="#0053AA" style="fill:#0053AA;fill:color(display-p3 0.0000 0.3255 0.6667);fill-opacity:1;"/>
<path d="M480.409 413.454L424.71 469.374L425.535 470.202L481.235 414.283L480.409 413.454Z" fill="#0053AA" style="fill:#0053AA;fill:color(display-p3 0.0000 0.3255 0.6667);fill-opacity:1;"/>
<path d="M484.111 417.169L428.412 473.089L429.238 473.917L484.937 417.997L484.111 417.169Z" fill="#0053AA" style="fill:#0053AA;fill:color(display-p3 0.0000 0.3255 0.6667);fill-opacity:1;"/>
<path d="M119.429 252.657L-145.428 347.514V365.23L119.429 270.372V252.657Z" fill="#FFE354" style="fill:#FFE354;fill:color(display-p3 1.0000 0.8902 0.3294);fill-opacity:1;"/>
<path d="M171.308 138.051V148.895L614.526 -9.84187V-20.6855L171.308 138.051Z" fill="#FFD500" style="fill:#FFD500;fill:color(display-p3 1.0000 0.8353 0.0000);fill-opacity:1;"/>
<path d="M248.23 227.601C242.347 227.601 237.561 222.8 237.561 216.897C237.561 210.995 242.347 206.193 248.23 206.193C254.112 206.193 258.898 210.995 258.898 216.897C258.898 222.8 254.112 227.601 248.23 227.601ZM248.23 208.366C243.541 208.366 239.727 212.193 239.727 216.897C239.727 221.601 243.541 225.428 248.23 225.428C252.918 225.428 256.732 221.601 256.732 216.897C256.732 212.193 252.918 208.366 248.23 208.366Z" fill="#FFE354" style="fill:#FFE354;fill:color(display-p3 1.0000 0.8902 0.3294);fill-opacity:1;"/>
<path d="M219.595 109.838C203.806 109.838 190.96 96.9488 190.96 81.1078C190.96 65.2669 203.806 52.3766 219.595 52.3766C235.384 52.3766 248.23 65.2656 248.23 81.1078C248.23 96.9501 235.384 109.838 219.595 109.838ZM219.595 54.5497C205 54.5497 193.126 66.4631 193.126 81.1078C193.126 95.7526 205 107.666 219.595 107.666C234.19 107.666 246.064 95.7526 246.064 81.1078C246.064 66.4631 234.19 54.5497 219.595 54.5497Z" fill="white" style="fill:white;fill-opacity:1;"/>
<path d="M341.037 411.001C335.155 411.001 330.369 406.199 330.369 400.297C330.369 394.394 335.155 389.592 341.037 389.592C346.92 389.592 351.706 394.394 351.706 400.297C351.706 406.199 346.92 411.001 341.037 411.001ZM341.037 391.766C336.349 391.766 332.535 395.593 332.535 400.297C332.535 405 336.349 408.828 341.037 408.828C345.726 408.828 349.54 405 349.54 400.297C349.54 395.593 345.726 391.766 341.037 391.766Z" fill="white" style="fill:white;fill-opacity:1;"/>
<path d="M274.738 64.5351C268.542 64.5351 263.5 59.4778 263.5 53.2597C263.5 47.0415 268.542 41.9842 274.738 41.9842C280.933 41.9842 285.975 47.0415 285.975 53.2597C285.975 59.4778 280.933 64.5351 274.738 64.5351ZM274.738 44.1587C269.735 44.1587 265.665 48.2415 265.665 53.261C265.665 58.2804 269.735 62.3632 274.738 62.3632C279.74 62.3632 283.81 58.2804 283.81 53.261C283.81 48.2415 279.74 44.1587 274.738 44.1587Z" fill="#FFD500" style="fill:#FFD500;fill:color(display-p3 1.0000 0.8353 0.0000);fill-opacity:1;"/>
<path d="M484.895 372.921C473.441 372.921 464.123 363.57 464.123 352.078C464.123 340.586 473.442 331.236 484.895 331.236C496.349 331.236 505.669 340.586 505.669 352.078C505.669 363.57 496.35 372.921 484.895 372.921ZM484.895 333.211C474.526 333.211 466.091 341.676 466.091 352.078C466.091 362.481 474.526 370.946 484.895 370.946C495.265 370.946 503.7 362.481 503.7 352.078C503.7 341.676 495.265 333.211 484.895 333.211Z" fill="#5491D1" style="fill:#5491D1;fill:color(display-p3 0.3294 0.5686 0.8196);fill-opacity:1;"/>
<path d="M649.766 423.226C637.165 423.226 626.914 412.94 626.914 400.296C626.914 387.653 637.165 377.367 649.766 377.367C662.367 377.367 672.618 387.653 672.618 400.296C672.618 412.94 662.367 423.226 649.766 423.226ZM649.766 379.542C638.359 379.542 629.079 388.853 629.079 400.298C629.079 411.743 638.359 421.054 649.766 421.054C661.172 421.054 670.453 411.743 670.453 400.298C670.453 388.853 661.172 379.542 649.766 379.542Z" fill="#0053AA" style="fill:#0053AA;fill:color(display-p3 0.0000 0.3255 0.6667);fill-opacity:1;"/>
<path d="M623.744 216.383C618.407 216.383 614.065 212.026 614.065 206.672C614.065 201.317 618.407 196.96 623.744 196.96C629.081 196.96 633.423 201.317 633.423 206.672C633.423 212.026 629.081 216.383 623.744 216.383ZM623.744 199.132C619.6 199.132 616.23 202.514 616.23 206.672C616.23 210.829 619.6 214.21 623.744 214.21C627.887 214.21 631.258 210.828 631.258 206.672C631.258 202.516 627.887 199.132 623.744 199.132Z" fill="#FFE354" style="fill:#FFE354;fill:color(display-p3 1.0000 0.8902 0.3294);fill-opacity:1;"/>
<path d="M20.749 268.183C16.5496 268.183 13.1326 264.755 13.1326 260.54C13.1326 256.326 16.5496 252.898 20.749 252.898C24.9485 252.898 28.3655 256.326 28.3655 260.54C28.3655 264.755 24.9485 268.183 20.749 268.183ZM20.749 255.071C17.7427 255.071 15.2979 257.525 15.2979 260.54C15.2979 263.556 17.744 266.01 20.749 266.01C23.754 266.01 26.2002 263.556 26.2002 260.54C26.2002 257.525 23.7553 255.071 20.749 255.071Z" fill="white" style="fill:white;fill-opacity:1;"/>
<path d="M352.556 138.594C347.7 138.594 343.749 134.63 343.749 129.758C343.749 124.886 347.7 120.921 352.556 120.921C357.411 120.921 361.363 124.886 361.363 129.758C361.363 134.63 357.411 138.594 352.556 138.594ZM352.556 122.442C348.535 122.442 345.264 125.724 345.264 129.758C345.264 133.791 348.535 137.073 352.556 137.073C356.576 137.073 359.847 133.791 359.847 129.758C359.847 125.724 356.577 122.442 352.556 122.442Z" fill="#5491D1" style="fill:#5491D1;fill:color(display-p3 0.3294 0.5686 0.8196);fill-opacity:1;"/>
<path d="M44.7331 36.43C39.8772 36.43 35.926 32.4658 35.926 27.5938C35.926 22.7218 39.8772 18.7576 44.7331 18.7576C49.5889 18.7576 53.5401 22.7218 53.5401 27.5938C53.5401 32.4658 49.5889 36.43 44.7331 36.43ZM44.7331 20.2773C40.713 20.2773 37.4415 23.5592 37.4415 27.5925C37.4415 31.6258 40.713 34.9077 44.7331 34.9077C48.7532 34.9077 52.0246 31.6258 52.0246 27.5925C52.0246 23.5592 48.7545 20.2773 44.7331 20.2773Z" fill="#0053AA" style="fill:#0053AA;fill:color(display-p3 0.0000 0.3255 0.6667);fill-opacity:1;"/>
<path d="M52.525 361.503L-256.309 472.11V489.794V504.564V522.248L52.525 411.641V361.503Z" fill="#5491D1" style="fill:#5491D1;fill:color(display-p3 0.3294 0.5686 0.8196);fill-opacity:1;"/>
<path d="M169.238 319.703V369.841L598.927 215.95V198.265V183.495V165.811L169.238 319.703Z" fill="#5491D1" style="fill:#5491D1;fill:color(display-p3 0.3294 0.5686 0.8196);fill-opacity:1;"/>
<path d="M408.474 93.4764C406.838 93.4764 405.202 92.8516 403.955 91.6006C403.398 91.041 402.653 90.7345 401.856 90.7345C401.059 90.7345 400.315 91.0423 399.757 91.6006C398.553 92.8085 396.948 93.4725 395.238 93.4725C393.527 93.4725 391.922 92.8072 390.719 91.6006C390.161 91.041 389.416 90.7345 388.62 90.7345C387.823 90.7345 387.078 91.0423 386.521 91.6006C384.029 94.1012 379.974 94.1012 377.482 91.6006C376.925 91.0423 376.18 90.7345 375.383 90.7345V87.2999C377.094 87.2999 378.699 87.9652 379.902 89.1718C381.059 90.3327 382.942 90.3327 384.1 89.1718C385.304 87.9639 386.909 87.2986 388.62 87.2986C390.33 87.2986 391.935 87.9639 393.139 89.1718C394.296 90.3327 396.179 90.3327 397.336 89.1718C398.539 87.9639 400.144 87.2986 401.855 87.2986C403.565 87.2986 405.17 87.9639 406.374 89.1718C407.531 90.3327 409.414 90.3327 410.571 89.1718C411.774 87.9639 413.38 87.2986 415.09 87.2986C416.801 87.2986 418.406 87.9639 419.609 89.1718C420.766 90.3327 422.649 90.3327 423.806 89.1718C426.298 86.6712 430.353 86.6712 432.845 89.1718C434.001 90.3327 435.885 90.3327 437.043 89.1718C438.246 87.9639 439.851 87.2999 441.562 87.2999V90.7345C440.765 90.7345 440.02 91.0423 439.463 91.6006C436.971 94.1012 432.916 94.1012 430.424 91.6006C429.268 90.4397 427.384 90.4397 426.226 91.6006C423.735 94.1012 419.679 94.1012 417.188 91.6006C416.63 91.041 415.886 90.7345 415.089 90.7345C414.292 90.7345 413.547 91.0423 412.99 91.6006C411.743 92.8503 410.107 93.4764 408.471 93.4764H408.474Z" fill="#5491D1" style="fill:#5491D1;fill:color(display-p3 0.3294 0.5686 0.8196);fill-opacity:1;"/>
<path d="M434.948 105.156C433.311 105.156 431.673 104.531 430.428 103.28C429.272 102.119 427.388 102.119 426.23 103.28C425.027 104.488 423.421 105.154 421.711 105.154C420.001 105.154 418.395 104.488 417.192 103.28C416.035 102.119 414.152 102.119 412.994 103.28C411.79 104.488 410.185 105.154 408.474 105.154C406.764 105.154 405.159 104.488 403.955 103.28C402.798 102.119 400.915 102.119 399.757 103.28C398.553 104.488 396.948 105.154 395.238 105.154C393.527 105.154 391.922 104.488 390.719 103.28C389.561 102.119 387.679 102.119 386.521 103.28C384.029 105.781 379.974 105.781 377.482 103.28C376.925 102.722 376.18 102.414 375.383 102.414V98.9797C377.094 98.9797 378.699 99.645 379.902 100.852C381.059 102.013 382.942 102.013 384.1 100.852C386.592 98.351 390.647 98.351 393.139 100.852C393.696 101.411 394.441 101.718 395.238 101.718C396.035 101.718 396.779 101.41 397.337 100.852C399.829 98.351 403.884 98.351 406.375 100.852C406.933 101.411 407.678 101.718 408.474 101.718C409.271 101.718 410.016 101.41 410.574 100.852C413.065 98.351 417.12 98.351 419.612 100.852C420.17 101.411 420.914 101.718 421.711 101.718C422.508 101.718 423.252 101.41 423.81 100.852C426.302 98.351 430.357 98.351 432.848 100.852C434.007 102.013 435.889 102.013 437.047 100.852C438.25 99.6437 439.855 98.9797 441.566 98.9797V102.414C440.769 102.414 440.024 102.722 439.467 103.28C438.22 104.53 436.584 105.156 434.948 105.156Z" fill="#5491D1" style="fill:#5491D1;fill:color(display-p3 0.3294 0.5686 0.8196);fill-opacity:1;"/>
<path d="M434.948 116.835C433.311 116.835 431.673 116.21 430.428 114.959C429.272 113.798 427.388 113.798 426.23 114.959C425.027 116.167 423.421 116.832 421.711 116.832C420.001 116.832 418.395 116.167 417.192 114.959C416.035 113.798 414.152 113.798 412.994 114.959C411.79 116.167 410.185 116.832 408.474 116.832C406.764 116.832 405.159 116.167 403.955 114.959C402.798 113.798 400.915 113.798 399.757 114.959C398.553 116.167 396.948 116.832 395.238 116.832C393.527 116.832 391.922 116.167 390.719 114.959C389.561 113.798 387.679 113.798 386.521 114.959C384.029 117.46 379.974 117.46 377.482 114.959C376.925 114.401 376.18 114.093 375.383 114.093V110.658C377.094 110.658 378.699 111.324 379.902 112.53C381.059 113.691 382.942 113.691 384.1 112.53C386.592 110.03 390.647 110.03 393.139 112.53C393.696 113.09 394.441 113.396 395.238 113.396C396.035 113.396 396.779 113.088 397.337 112.53C399.829 110.03 403.884 110.03 406.375 112.53C406.933 113.09 407.678 113.396 408.474 113.396C409.271 113.396 410.016 113.088 410.574 112.53C413.065 110.03 417.12 110.03 419.612 112.53C420.17 113.09 420.914 113.396 421.711 113.396C422.508 113.396 423.252 113.088 423.81 112.53C426.302 110.03 430.357 110.03 432.848 112.53C434.007 113.691 435.889 113.691 437.047 112.53C438.25 111.322 439.855 110.658 441.566 110.658V114.093C440.769 114.093 440.024 114.401 439.467 114.959C438.22 116.209 436.584 116.835 434.948 116.835Z" fill="#5491D1" style="fill:#5491D1;fill:color(display-p3 0.3294 0.5686 0.8196);fill-opacity:1;"/>
<path d="M503.439 207.067C501.368 207.067 499.298 206.276 497.721 204.694C497.017 203.987 496.073 203.597 495.066 203.597C494.058 203.597 493.115 203.987 492.41 204.694C490.888 206.222 488.857 207.063 486.693 207.063C484.529 207.063 482.497 206.222 480.975 204.694C479.51 203.225 477.128 203.225 475.664 204.694C474.142 206.222 472.111 207.063 469.947 207.063C467.783 207.063 465.751 206.222 464.229 204.694C463.525 203.987 462.581 203.598 461.574 203.598C460.567 203.598 459.623 203.987 458.919 204.694C457.395 206.222 455.365 207.063 453.201 207.063C451.037 207.063 449.006 206.222 447.484 204.694C446.779 203.987 445.835 203.598 444.828 203.598V199.253C446.992 199.253 449.024 200.095 450.546 201.622C451.25 202.329 452.194 202.719 453.201 202.719C454.208 202.719 455.152 202.329 455.856 201.622C457.378 200.095 459.41 199.253 461.574 199.253C463.738 199.253 465.77 200.095 467.292 201.622C467.996 202.329 468.94 202.719 469.947 202.719C470.954 202.719 471.898 202.331 472.602 201.624C475.755 198.46 480.886 198.46 484.039 201.624C484.743 202.331 485.687 202.721 486.694 202.721C487.701 202.721 488.645 202.332 489.349 201.625C490.873 200.097 492.903 199.256 495.067 199.256C497.231 199.256 499.263 200.097 500.785 201.625C502.248 203.094 504.632 203.094 506.095 201.625C507.617 200.097 509.649 199.256 511.813 199.256C513.977 199.256 516.008 200.097 517.53 201.625C518.235 202.332 519.178 202.721 520.186 202.721C521.193 202.721 522.137 202.332 522.841 201.625C524.364 200.097 526.395 199.256 528.559 199.256V203.601C527.551 203.601 526.608 203.99 525.903 204.698C524.381 206.226 522.35 207.067 520.186 207.067C518.022 207.067 515.99 206.226 514.468 204.698C513.764 203.991 512.82 203.601 511.813 203.601C510.806 203.601 509.862 203.99 509.157 204.697C507.581 206.279 505.51 207.07 503.44 207.07L503.439 207.067Z" fill="#FFD500" style="fill:#FFD500;fill:color(display-p3 1.0000 0.8353 0.0000);fill-opacity:1;"/>
<path d="M213.039 188.596C210.968 188.596 208.898 187.806 207.321 186.224C206.617 185.517 205.673 185.127 204.666 185.127C203.659 185.127 202.715 185.517 202.011 186.224C200.489 187.751 198.457 188.592 196.293 188.592C194.129 188.592 192.098 187.751 190.576 186.224C189.111 184.755 186.728 184.755 185.265 186.224C183.743 187.751 181.711 188.592 179.547 188.592C177.383 188.592 175.352 187.751 173.83 186.224C173.125 185.517 172.182 185.128 171.174 185.128C170.167 185.128 169.223 185.517 168.519 186.224C166.996 187.751 164.965 188.592 162.801 188.592C160.637 188.592 158.606 187.751 157.084 186.224C156.379 185.517 155.436 185.128 154.428 185.128V180.783C156.593 180.783 158.624 181.624 160.146 183.152C160.85 183.859 161.794 184.249 162.801 184.249C163.809 184.249 164.752 183.859 165.457 183.152C166.979 181.624 169.01 180.783 171.174 180.783C173.338 180.783 175.37 181.624 176.892 183.152C177.596 183.859 178.54 184.249 179.547 184.249C180.555 184.249 181.498 183.86 182.203 183.153C185.356 179.99 190.486 179.99 193.639 183.153C194.344 183.86 195.287 184.25 196.294 184.25C197.302 184.25 198.245 183.861 198.95 183.154C200.473 181.627 202.503 180.785 204.667 180.785C206.831 180.785 208.863 181.627 210.385 183.154C211.848 184.623 214.232 184.623 215.696 183.154C217.218 181.627 219.249 180.785 221.413 180.785C223.577 180.785 225.609 181.627 227.131 183.154C227.835 183.861 228.779 184.25 229.786 184.25C230.793 184.25 231.737 183.861 232.441 183.154C233.965 181.627 235.995 180.785 238.159 180.785V185.13C237.152 185.13 236.208 185.519 235.504 186.227C233.982 187.755 231.95 188.596 229.786 188.596C227.622 188.596 225.591 187.755 224.069 186.227C223.364 185.52 222.42 185.13 221.413 185.13C220.406 185.13 219.462 185.519 218.758 186.226C217.181 187.808 215.111 188.599 213.04 188.599L213.039 188.596Z" fill="white" style="fill:white;fill-opacity:1;"/>
<path d="M291.484 420.421C289.413 420.421 287.343 419.631 285.766 418.048C285.062 417.341 284.118 416.951 283.111 416.951C282.103 416.951 281.16 417.341 280.455 418.048C278.933 419.576 276.902 420.417 274.738 420.417C272.574 420.417 270.542 419.576 269.02 418.048C267.555 416.58 265.173 416.58 263.709 418.048C262.187 419.576 260.156 420.417 257.992 420.417C255.828 420.417 253.796 419.576 252.274 418.048C251.57 417.341 250.626 416.953 249.619 416.953C248.612 416.953 247.668 417.341 246.964 418.048C245.44 419.576 243.41 420.417 241.246 420.417C239.082 420.417 237.05 419.576 235.528 418.048C234.824 417.341 233.88 416.953 232.873 416.953V412.608C235.037 412.608 237.069 413.449 238.591 414.976C239.295 415.683 240.239 416.074 241.246 416.074C242.253 416.074 243.197 415.683 243.901 414.976C245.423 413.449 247.455 412.608 249.619 412.608C251.783 412.608 253.814 413.449 255.336 414.976C256.041 415.683 256.985 416.074 257.992 416.074C258.999 416.074 259.943 415.685 260.647 414.978C263.8 411.815 268.93 411.815 272.084 414.978C272.788 415.685 273.732 416.075 274.739 416.075C275.746 416.075 276.69 415.686 277.394 414.979C278.918 413.452 280.948 412.61 283.112 412.61C285.276 412.61 287.307 413.452 288.829 414.979C290.293 416.448 292.677 416.448 294.14 414.979C295.662 413.452 297.694 412.61 299.858 412.61C302.022 412.61 304.053 413.452 305.575 414.979C306.28 415.686 307.223 416.075 308.231 416.075C309.238 416.075 310.182 415.686 310.886 414.979C312.409 413.452 314.44 412.61 316.604 412.61V416.955C315.596 416.955 314.653 417.344 313.948 418.052C312.426 419.58 310.395 420.421 308.231 420.421C306.067 420.421 304.035 419.58 302.513 418.052C301.809 417.345 300.865 416.955 299.858 416.955C298.85 416.955 297.907 417.344 297.202 418.051C295.626 419.633 293.555 420.424 291.485 420.424L291.484 420.421Z" fill="#FFD500" style="fill:#FFD500;fill:color(display-p3 1.0000 0.8353 0.0000);fill-opacity:1;"/>
</g>
<defs>
<clipPath id="clip0_2012_972">
<rect width="650" height="479" rx="12" fill="white" style="fill:white;fill-opacity:1;"/>
</clipPath>
</defs>
</svg>
