<svg width="48" height="48" viewBox="0 0 48 48" fill="none" xmlns="http://www.w3.org/2000/svg">
<path d="M42.1801 13.96C40.4801 12.08 37.6401 11.14 33.5201 11.14H33.0401V11.06C33.0401 7.70004 33.0401 3.54004 25.5201 3.54004H22.4801C14.9601 3.54004 14.9601 7.72004 14.9601 11.06V11.16H14.4801C10.3401 11.16 7.52008 12.1 5.82008 13.98C3.84008 16.18 3.90007 19.14 4.10007 21.16L4.12007 21.3L4.32008 23.4C4.34008 23.42 4.38007 23.46 4.42007 23.48C5.08008 23.92 5.76007 24.36 6.48007 24.76C6.76007 24.94 7.06008 25.1 7.36007 25.26C10.7801 27.14 14.5401 28.4 18.3601 29.02C18.5401 30.9 19.3601 33.1 23.7401 33.1C28.1201 33.1 28.9801 30.92 29.1201 28.98C33.2001 28.32 37.1401 26.9 40.7001 24.82C40.8201 24.76 40.9001 24.7 41.0001 24.64C41.9201 24.12 42.7801 23.56 43.6201 22.94C43.6601 22.92 43.7001 22.88 43.7201 22.84L43.8001 22.12L43.9001 21.18C43.9201 21.06 43.9201 20.96 43.9401 20.82C44.1001 18.8 44.0601 16.04 42.1801 13.96ZM26.1801 27.66C26.1801 29.78 26.1801 30.1 23.7201 30.1C21.2601 30.1 21.2601 29.72 21.2601 27.68V25.16H26.1801V27.66ZM17.8201 11.14V11.06C17.8201 7.66004 17.8201 6.40004 22.4801 6.40004H25.5201C30.1801 6.40004 30.1801 7.68004 30.1801 11.06V11.16H17.8201V11.14Z" fill="#005BBB" style="fill:#005BBB;fill:color(display-p3 0.0000 0.3569 0.7333);fill-opacity:1;"/>
<path opacity="0.4" d="M41.0001 24.6C40.9001 24.66 40.8001 24.7201 40.7001 24.7801C37.1401 26.8601 33.2001 28.2601 29.1201 28.9401C28.9601 30.8601 28.1201 33.0601 23.7401 33.0601C19.3601 33.0601 18.5201 30.88 18.3601 28.98C14.5401 28.38 10.7801 27.12 7.36007 25.22C7.06007 25.06 6.76007 24.9 6.48007 24.72C5.76007 24.32 5.08007 23.8801 4.42007 23.4401C4.38007 23.4201 4.34007 23.3801 4.32007 23.3601L5.54007 36.3801C5.96007 40.3601 7.60007 44.46 16.4001 44.46H31.6401C40.4401 44.46 42.0801 40.3601 42.5001 36.3601L43.7601 22.8C43.7401 22.84 43.7001 22.88 43.6601 22.9C42.8001 23.52 41.9201 24.1 41.0001 24.6Z" fill="#005BBB" style="fill:#005BBB;fill:color(display-p3 0.0000 0.3569 0.7333);fill-opacity:1;"/>
</svg>
