<svg width="48" height="48" viewBox="0 0 48 48" fill="none" xmlns="http://www.w3.org/2000/svg">
<path opacity="0.4" d="M18 4C12.76 4 8.5 8.26 8.5 13.5C8.5 18.64 12.52 22.8 17.76 22.98C17.92 22.96 18.08 22.96 18.2 22.98C18.24 22.98 18.26 22.98 18.3 22.98C18.32 22.98 18.32 22.98 18.34 22.98C23.46 22.8 27.48 18.64 27.5 13.5C27.5 8.26 23.24 4 18 4Z" fill="#005BBB" style="fill:#005BBB;fill:color(display-p3 0.0000 0.3569 0.7333);fill-opacity:1;"/>
<path d="M28.1599 28.3C22.5799 24.58 13.4799 24.58 7.85992 28.3C5.31992 30 3.91992 32.3 3.91992 34.76C3.91992 37.22 5.31992 39.5 7.83992 41.18C10.6399 43.06 14.3199 44 17.9999 44C21.6799 44 25.3599 43.06 28.1599 41.18C30.6799 39.48 32.0799 37.2 32.0799 34.72C32.0599 32.26 30.6799 29.98 28.1599 28.3Z" fill="#005BBB" style="fill:#005BBB;fill:color(display-p3 0.0000 0.3569 0.7333);fill-opacity:1;"/>
<path opacity="0.4" d="M39.98 14.68C40.3 18.56 37.54 21.96 33.72 22.42C33.7 22.42 33.7 22.42 33.68 22.42H33.62C33.5 22.42 33.38 22.42 33.28 22.46C31.34 22.56 29.56 21.94 28.22 20.8C30.28 18.96 31.46 16.2 31.22 13.2C31.08 11.58 30.52 10.1 29.68 8.83996C30.44 8.45996 31.32 8.21996 32.22 8.13996C36.14 7.79996 39.64 10.72 39.98 14.68Z" fill="#005BBB" style="fill:#005BBB;fill:color(display-p3 0.0000 0.3569 0.7333);fill-opacity:1;"/>
<path d="M43.98 33.1801C43.82 35.1201 42.58 36.8001 40.5 37.9401C38.5 39.0401 35.98 39.5601 33.48 39.5001C34.92 38.2001 35.76 36.5801 35.92 34.8601C36.12 32.3801 34.94 30.0001 32.58 28.1001C31.24 27.0401 29.68 26.2001 27.98 25.5801C32.4 24.3001 37.96 25.1601 41.38 27.9201C43.22 29.4001 44.16 31.2601 43.98 33.1801Z" fill="#005BBB" style="fill:#005BBB;fill:color(display-p3 0.0000 0.3569 0.7333);fill-opacity:1;"/>
</svg>
