<svg width="1920" height="559" viewBox="0 0 1920 559" fill="none" xmlns="http://www.w3.org/2000/svg">
<mask id="mask0_2012_1091" style="mask-type:alpha" maskUnits="userSpaceOnUse" x="-39" y="0" width="1998" height="559">
<rect x="-38.3403" y="17.6444" width="1992.07" height="541" transform="rotate(-0.49668 -38.3403 17.6444)" fill="#0053AA" style="fill:#0053AA;fill:color(display-p3 0.0000 0.3255 0.6667);fill-opacity:1;"/>
</mask>
<g mask="url(#mask0_2012_1091)">
<mask id="path-2-inside-1_2012_1091" fill="white">
<path d="M-38.3403 17.6444L1953.65 0.37601L1958.34 541.356L-33.6506 558.624L-38.3403 17.6444Z"/>
</mask>
<path d="M-38.3403 17.6444L1953.65 0.37601L1958.34 541.356L-33.6506 558.624L-38.3403 17.6444Z" fill="#0053AA" style="fill:#0053AA;fill:color(display-p3 0.0000 0.3255 0.6667);fill-opacity:1;"/>
<path d="M-38.2536 27.644L1953.74 10.3756L1953.56 -9.62361L-38.427 7.64478L-38.2536 27.644ZM1958.25 531.356L-33.7373 548.624L-33.5639 568.624L1958.43 551.355L1958.25 531.356Z" fill="#FFD500" style="fill:#FFD500;fill:color(display-p3 1.0000 0.8353 0.0000);fill-opacity:1;" mask="url(#path-2-inside-1_2012_1091)"/>
<mask id="mask1_2012_1091" style="mask-type:alpha" maskUnits="userSpaceOnUse" x="-865" y="-707" width="1712" height="1712">
<circle opacity="0.3" cx="-9" cy="149" r="856" fill="url(#paint0_radial_2012_1091)" style=""/>
</mask>
<g mask="url(#mask1_2012_1091)">
<circle cx="-9" cy="149" r="214.5" stroke="#F9F9F9" style="stroke:#F9F9F9;stroke:color(display-p3 0.9750 0.9750 0.9750);stroke-opacity:1;"/>
<circle cx="-9" cy="149" r="132.5" stroke="#F9F9F9" style="stroke:#F9F9F9;stroke:color(display-p3 0.9750 0.9750 0.9750);stroke-opacity:1;"/>
<circle cx="-9" cy="149" r="312.5" stroke="#F9F9F9" style="stroke:#F9F9F9;stroke:color(display-p3 0.9750 0.9750 0.9750);stroke-opacity:1;"/>
<circle cx="-9" cy="149" r="431.5" stroke="#F9F9F9" style="stroke:#F9F9F9;stroke:color(display-p3 0.9750 0.9750 0.9750);stroke-opacity:1;"/>
<circle cx="-9" cy="149" r="590.5" stroke="#F9F9F9" style="stroke:#F9F9F9;stroke:color(display-p3 0.9750 0.9750 0.9750);stroke-opacity:1;"/>
<circle cx="-9" cy="149" r="698.5" stroke="#F9F9F9" style="stroke:#F9F9F9;stroke:color(display-p3 0.9750 0.9750 0.9750);stroke-opacity:1;"/>
<circle cx="-9" cy="149" r="855.5" stroke="#F9F9F9" style="stroke:#F9F9F9;stroke:color(display-p3 0.9750 0.9750 0.9750);stroke-opacity:1;"/>
</g>
<mask id="mask2_2012_1091" style="mask-type:alpha" maskUnits="userSpaceOnUse" x="1149" y="-269" width="1712" height="1712">
<circle opacity="0.3" cx="2005" cy="587" r="856" fill="url(#paint1_radial_2012_1091)" style=""/>
</mask>
<g mask="url(#mask2_2012_1091)">
<circle cx="2005" cy="587" r="214.5" stroke="#F9F9F9" style="stroke:#F9F9F9;stroke:color(display-p3 0.9750 0.9750 0.9750);stroke-opacity:1;"/>
<circle cx="2005" cy="587" r="132.5" stroke="#F9F9F9" style="stroke:#F9F9F9;stroke:color(display-p3 0.9750 0.9750 0.9750);stroke-opacity:1;"/>
<circle cx="2005" cy="587" r="312.5" stroke="#F9F9F9" style="stroke:#F9F9F9;stroke:color(display-p3 0.9750 0.9750 0.9750);stroke-opacity:1;"/>
<circle cx="2005" cy="587" r="431.5" stroke="#F9F9F9" style="stroke:#F9F9F9;stroke:color(display-p3 0.9750 0.9750 0.9750);stroke-opacity:1;"/>
<circle cx="2005" cy="587" r="590.5" stroke="#F9F9F9" style="stroke:#F9F9F9;stroke:color(display-p3 0.9750 0.9750 0.9750);stroke-opacity:1;"/>
<circle cx="2005" cy="587" r="698.5" stroke="#F9F9F9" style="stroke:#F9F9F9;stroke:color(display-p3 0.9750 0.9750 0.9750);stroke-opacity:1;"/>
<circle cx="2005" cy="587" r="855.5" stroke="#F9F9F9" style="stroke:#F9F9F9;stroke:color(display-p3 0.9750 0.9750 0.9750);stroke-opacity:1;"/>
</g>
</g>
<defs>
<radialGradient id="paint0_radial_2012_1091" cx="0" cy="0" r="1" gradientUnits="userSpaceOnUse" gradientTransform="translate(-9 149) rotate(90) scale(856)">
<stop stop-color="#D9D9D9" style="stop-color:#D9D9D9;stop-color:color(display-p3 0.8510 0.8510 0.8510);stop-opacity:1;"/>
<stop offset="1" stop-color="#737373" stop-opacity="0" style="stop-color:none;stop-opacity:0;"/>
</radialGradient>
<radialGradient id="paint1_radial_2012_1091" cx="0" cy="0" r="1" gradientUnits="userSpaceOnUse" gradientTransform="translate(2005 587) rotate(90) scale(856)">
<stop stop-color="#D9D9D9" style="stop-color:#D9D9D9;stop-color:color(display-p3 0.8510 0.8510 0.8510);stop-opacity:1;"/>
<stop offset="1" stop-color="#737373" stop-opacity="0" style="stop-color:none;stop-opacity:0;"/>
</radialGradient>
</defs>
</svg>
